<?xml version="1.0" encoding="utf-8"?>
<!-- Generator: Adobe Illustrator 19.0.0, SVG Export Plug-In . SVG Version: 6.00 Build 0)  -->
<svg version="1.1" id="logo-site-svg" xmlns="http://www.w3.org/2000/svg" xmlns:xlink="http://www.w3.org/1999/xlink" x="0px"
	 y="0px" viewBox="-304.4 397.1 100.8 73.8" style="enable-background:new -304.4 397.1 100.8 73.8;" xml:space="preserve">
<style type="text/css">
	.st0{fill:#000;}
	.st1{fill:#000;}
</style>
<title>site_logo</title>
<path class="st0" d="M-253.9,470.9c-15.1,0-29.6-3.2-43.3-9.5c-0.6-0.3-1-0.9-1.1-1.5c-2.1-18.6-4.1-34.9-6.1-48.3
	c-0.1-0.8,0.3-1.6,1-1.9c15.1-8.3,32.2-12.6,49.4-12.6s34.3,4.4,49.4,12.6c0.7,0.4,1.1,1.2,1,1.9c-1.9,13.4-4,29.7-6.1,48.3
	c-0.1,0.7-0.5,1.3-1.1,1.5C-224,467.6-239,470.9-253.9,470.9 M-296.1,459.5C-296.1,459.6-296.1,459.6-296.1,459.5
	C-296.1,459.6-296.1,459.6-296.1,459.5"/>
<g>
	<path class="st1" d="M-281.7,452.7L-281.7,452.7c-0.6-0.1-4.3-0.7-4.6-5.2c-0.2-2,0.3-3.4,1.2-4.4c1.3-1.4,3.5-1.3,3.5-1.3
		s0.1,0,0.2-0.1c0.1,0,0-0.1,0-0.1v-4.5c0,0,0-0.1-0.1-0.2c-0.1-0.1-0.1,0-0.1,0c-0.2,0-5.4-0.5-8.6,2.8c-2.2,2.3-2.6,4.8-2.7,7.2
		c-0.1,2.1,0.5,5.2,2.9,8.1c3.2,3.7,7.1,3.8,7.4,3.8h0.3c0,0,0.1,0,0.2,0c0.1-0.1,0.1-0.2,0.1-0.2l0.3-5.8
		C-281.7,452.9-281.7,452.8-281.7,452.7z"/>
</g>
<path class="st1" d="M-266.2,449.3c-0.1-2.7-0.2-5.6-0.9-7.6c-1-2.8-3.1-5.1-6.7-4.7c-5.2,0.5-6.3,5.2-6.1,12.3
	c0.2,7.2,2.2,11.7,6.3,12.2C-267.1,462.3-265.9,456.4-266.2,449.3 M-272.5,457c-1.3,0-1.7-3.7-1.9-8c-0.2-4.2,0.1-7,1.2-7.3
	c0.7-0.2,1.4,1,1.7,3.1c0.2,1.2,0.2,2.7,0.3,4.2C-271.1,453.6-271.5,457-272.5,457"/>
<path class="st1" d="M-277.1,413.3l-0.1-2.9c0-0.8-0.1-1.6-0.1-2.5v-0.1c-0.1,0-0.2,0-0.3,0.1c-1.7,0.5-3.3,1-5,1.5
	c-3.6,1.2-8.6,3.4-11.9,5.3c-0.2,0.1-0.4,0.2-0.4,0.6c0,0.7,0.1,1.3,0.1,1.6c0,0.5,0.2,2.3,0.3,3c0.1,0.5,0.4,0.4,0.7,0.3
	c1.8-1,1.9-1,3.7-1.9l0,0l0.9,15.5c0,0.1,0.1,0.1,0.2,0.1l7.3-0.2c0.1,0,0.1-0.1,0.1-0.1l-1-18.4l0,0c1.7-0.6,3.5-1.1,5.3-1.6
	C-277.1,413.6-277.1,413.5-277.1,413.3L-277.1,413.3"/>
<g>
	<path class="st1" d="M-226.1,409.4l3.2,12.2c0,0,0,0,0,0.1l-0.5,11.8c0,0.2,0.2,0.4,0.4,0.4l6.4,0.2c0.2,0,0.3-0.1,0.4-0.3
		l0.8-10.4c0,0,0,0,0-0.1l3.9-8.2c0-0.1,0-0.2-0.1-0.2l-3.8-1.6c-0.1-0.1-0.2,0-0.3,0.1l-2.4,5.7l-1.7-7.8c0-0.1-0.1-0.2-0.2-0.2
		l-5.9-1.9C-226,409.1-226.1,409.3-226.1,409.4L-226.1,409.4z"/>
</g>
<path class="st1" d="M-216.7,451.4h-0.1l-3.1,1h-0.1c-0.1,0,0-0.1,0-0.1l0.1-3.9c0,0,0,0,0-0.1l0,0l2-0.5h0.1v-0.1l0.2-3.5v-0.1
	h-0.1l-2,0.2c0,0,0,0-0.1,0v-0.1l0.1-2.4c0-0.2,0.1-0.3,0.3-0.3l3.1-0.4c0.1,0,0.1-0.1,0.1-0.2l0.3-3.8c0-0.1-0.1-0.2-0.2-0.2h-7.2
	c-0.1,0-0.2,0.1-0.2,0.2l-0.9,21.1c0,0.1,0.1,0.2,0.2,0.2c0.7-0.1,2.4-0.8,3.2-1.2c1.7-0.7,2.3-1,3.8-1.8c0.1-0.1,0.2-0.2,0.2-0.3
	l0.2-3.6C-216.7,451.6-216.7,451.5-216.7,451.4"/>
<g>
	<path class="st1" d="M-227.9,408.5c-0.1,0-0.2-0.1-0.3-0.1c-0.5-0.1-1.5-0.4-1.9-0.5c-1.4-0.4-2.8-0.7-4.2-1
		c-0.9-0.2-1.8-0.4-2.7-0.5c-0.7-0.1-1.4-0.2-2.1-0.3c-0.5-0.1-1-0.2-1.5-0.2c-0.6-0.1-1.1-0.2-1.7-0.2c-0.5-0.1-1.1-0.1-1.6-0.2
		c-0.2,0-0.4,0-0.4,0.3c0,0.6-0.1,4.1-0.1,5.2c0,0.2,0.1,0.3,0.3,0.3c0.9,0.1,2.2,0.3,3.1,0.4c0.5,0.1,0.9,0.1,1.4,0.2L-240,429
		c0.9,0.2,1.9,0.5,2.9,1.3c1.6,1.1,2.8,2.3,3.5,3.7h1c0,0,0.3,0,0.4-0.1c0.1-0.1,0.1-0.3,0.1-0.3l0.7-19.8c0-0.1,0.1-0.1,0.2-0.1
		c0.9,0.2,1.4,0.3,2.3,0.5c0.2,0.1,0.5,0.1,0.7,0.2c0.1,0,0.1,0,0.1-0.1c0-0.2,0-0.4,0-0.7c0.2-0.5,0.2-1.1,0.2-1.6
		c0-1,0.1-1.8,0.1-2.8c0-0.1,0-0.2,0-0.3C-227.7,408.8-227.7,408.6-227.9,408.5z"/>
</g>
<g>
	<path class="st1" d="M-256.1,439c-4.2,0.4-5.7-2-5.7-2s-0.7,1.1-2,1.5l0.6,24.1c0,0.1,0.1,0.1,0.1,0.1l6.5,0.4
		c0.1,0,0.1-0.1,0.1-0.1l-0.1-9.8c0,0,0-0.1,0-0.2h0.2l2.2-0.1c0.1,0,0.1,0,0.1-0.1v-4.6c0-0.1-0.1-0.2-0.2-0.2h-2.2
		c-0.1,0-0.2-0.1-0.2-0.2v-5.7c0-0.1,0.1-0.2,0.2-0.2h3.3c0.1,0,0.2-0.1,0.2-0.2v-3.6C-253.9,438.6-254.9,438.9-256.1,439z"/>
</g>
<g>
	<path class="st1" d="M-245,436.9h-5.1c-0.1,0-0.2,0.1-0.2,0.2V463c0,0.1,0.1,0.1,0.1,0.1l6.6-0.5c0.1,0,0.1-0.1,0.1-0.1l0.2-9.4
		c0-0.1,0.1-0.1,0.1-0.1l2.3-0.3c0.1,0,0.1-0.1,0.1-0.1l0.1-4.6c0-0.1-0.1-0.1-0.1-0.1h-2.3c-0.1,0-0.1,0-0.1-0.1l0.1-5.7
		c0-0.1,0.1-0.1,0.1-0.1h3.4c0.1,0,0.2-0.1,0.2-0.2v-1.1C-241.1,440.3-243.3,439-245,436.9z"/>
</g>
<g>
	<path class="st1" d="M-226,436.9h-7.1c-0.2,1.3-1.4,3.1-3.5,3.7l-0.5,20.8c0,0.1,0.1,0.1,0.1,0.1c0.6-0.1,3.1-0.5,4-0.7
		c1.4-0.3,5.1-1.1,6.1-1.4c0.1,0,0.1-0.1,0.1-0.2l0.3-4.4c0-0.1-0.1-0.2-0.1-0.1l-3.5,0.6h-0.1v-0.1l0.3-4.4v-0.1h0.1l1.4-0.3h0.1
		v-0.1l0.2-3.8c0,0,0-0.1,0-0.2c-0.1-0.1-0.2,0-0.2,0h-1.3h-0.1v-0.1l0.2-4c0-0.1,0.1-0.2,0.2-0.2h3.1c0.1,0,0.2-0.1,0.2-0.2
		l0.2-4.7C-225.8,437-225.9,436.9-226,436.9z"/>
</g>
<g>
	<path class="st1" d="M-273.4,428.7c0.3-0.7,1.5-3.3,5.5-2.5c5.1,1,6.5,6.5,6.5,6.5s0.5-1.4,1.5-2.6l-5.3-24.1c0,0,0-0.1-0.1-0.1
		s-0.2,0-0.2,0s-1.8,0.2-3.6,0.5c-1.8,0.3-3.8,0.9-3.8,0.9s-0.1,0-0.1,0.1c0,0.1-0.1,0.1-0.1,0.1l-4.2,26.2c0,0,0,0.1,0,0.2
		c0.1,0.1,0.2,0.1,0.2,0.1h4.3C-273.6,432.4-274.1,430.4-273.4,428.7z M-269.7,413.3c0,0,0-0.2,0.1-0.2c0.1,0,0.2,0,0.2,0
		s0.3,0,0.4,0l0.1,0.2l1.1,8.4c0,0.1,0,0.1-0.1,0.1l-2.5,0.2c0,0-0.1,0-0.2,0v-0.2L-269.7,413.3z"/>
</g>
<g>
	<path class="st1" d="M-252,421.7c-0.1,2.2-4.5,3.8-5.8,4.3c-0.2,0.1-0.2,0.2-0.1,0.4l0.5,1.9c0.8-0.4,1.8-0.9,3.2-1.2
		c1.6-0.4,4-0.3,5.5,1.2c1.3,1.3,1.3,2.9,1.2,3.7c1.9-1.4,3.6-3.4,4.3-6.3c1.6-7.3-8-10.6-8.6-13.8c-0.3-1.7,1.8-2.4,2.5-2.6
		c0.1,0,0.2-0.2,0.1-0.3l-1.5-5c0-0.1-0.2-0.2-0.3-0.2c-1.4,0.5-8.6,3-7.9,9C-258.5,416.9-251.9,418.6-252,421.7z"/>
</g>
<path class="st1" d="M-264.9,435.4c-0.1-0.1-0.2-0.1-0.3-0.2c-0.2-0.1-0.3-0.3-0.4-0.4s-0.4-0.5-0.5-0.5c-0.6-0.3-0.7-0.7-0.8-0.8
	c-0.2-0.2-0.4-0.4-0.6-0.5c-0.1-0.1-0.2-0.2-0.3-0.3c-0.3-0.3-1.5-0.6-2.3-1.7c-0.1-0.1-0.1-0.4-0.2-0.5c0-0.1-0.1-0.4-0.2-0.5
	c-0.1-0.2-0.3-0.3-0.3-0.5v-0.1h0.1h0.1c0.4,0,0.7,0.4,1,0.8c0.1,0.1,0.2,0.2,0.2,0.3c0.3,0.3,0.5,0.4,0.8,0.5
	c0.2,0.1,0.4,0.2,0.6,0.3c0.1,0.1,0.3,0.2,0.5,0.3c0.3,0.2,0.6,0.4,0.9,0.7c0.1,0.2,0.3,0.3,0.4,0.5c0.2,0.3,0.4,0.5,0.7,0.8
	c0.2,0.2,0.5,0.4,0.7,0.5c0.1,0.1,0.3,0.2,0.4,0.3c0,0,0.1,0.1,0.2,0.2c0.3,0.2,0.8,0.8,1,0.7c0.1,0,0.1-0.1,0.1-0.3
	c0.1-0.7,0-1.4-0.2-2c-0.1-0.3-0.6-1.5-0.8-1.8c-2.3-3.4-4.6-3.6-5.8-3.4c-0.7,0.1-1.4,0.7-1.8,1.4c-0.4,0.9-0.2,1.9,0.2,2.8
	c0.4,0.7,0.9,1.6,1.4,2.2c0.9,0.8,1.8,1.6,2.9,2c0.5,0.2,1.1,0.5,1.7,0.5c0.4,0,1.4,0,1.7-0.5C-263.7,435.9-264.4,435.5-264.9,435.4
	"/>
<path class="st1" d="M-249.4,430.5L-249.4,430.5c-0.1-0.1-0.2-0.2-0.3-0.3h-0.2c-0.2,0-0.3,0.4-0.4,0.6c-0.1,0.1-0.1,0.1-0.2,0.2
	c-0.2,0.2-0.4,0.3-0.6,0.5c-0.2,0.2-0.4,0.4-0.6,0.5c-0.1,0.1-0.3,0.2-0.4,0.2c-0.1,0.1-0.3,0.1-0.4,0.2c0,0-0.5,0.2-0.7,0.2
	c-0.1,0-0.1,0-0.2,0.1c-0.1,0.1-0.4,0.4-0.5,0.5c-0.1,0.1-0.1,0.2-0.2,0.2c-0.1,0.1-0.4,0.1-0.5,0.1l-0.4,0.2
	c-0.3,0.1-0.4,0.2-0.6,0.4c-0.3,0.3-0.7,0.5-1,0.7c-0.2,0.1-0.4,0-0.6,0.1c-0.2,0.1-0.4,0.3-0.7,0.3c-0.1,0-0.1,0-0.2,0
	c-0.1,0-0.2-0.1-0.2-0.2c0-0.2,0-0.4,0.2-0.5l0.3-0.2c0.2-0.1,0.6-0.2,0.8-0.3c0.4-0.2,1.4-1.1,1.4-1.1c0.3-0.1,0.5-0.2,0.8-0.4
	c0.4-0.2,0.8-0.6,1.1-0.8l0.8-0.3c0.5-0.3,1.1-0.7,1.4-0.9c0.1-0.1,0.2-0.2,0.3-0.3c0.4-0.3,0.8-0.7,0.7-1l0,0l0,0l0,0l0,0l0,0
	c-0.4-0.5-1.3-0.4-1.9-0.4c-1.2-0.1-2.4,0.5-3.5,1s-2.2,1.1-2.9,2.1c-0.4,0.5-0.8,0.9-1.1,1.4c-0.1,0.3-0.9,2.2-0.4,3
	c0.7,1.1,2.6,1.2,3.8,1.1c1.3-0.1,2.4-0.8,3.6-1.2c1.1-0.4,1.8-1.1,2.7-1.9c0.6-0.6,0.9-1.3,0.9-2.2
	C-249.2,431.5-249.2,430.9-249.4,430.5"/>
<path class="st1" d="M-236,433.7c-0.4-0.4-0.8-1-1.3-1.4c-0.5-0.4-1.1-0.7-1.6-1c-0.8-0.5-1.8-0.7-2.8-0.8c-0.5-0.1-1-0.1-1.5,0
	c-0.6,0.1-0.8,0.2-1.1,0.7v0.1c0.1,0.2,0.4,0.1,0.6,0.2c0.6,0.3,1,0.9,1.2,0.9c0.1,0,0.8,0.3,0.9,0.4c0.1,0.1,0.1,0.1,0.2,0.2
	c0.2,0.2,0.5,0.3,0.8,0.5c0.3,0.1,1.7,1.5,1.8,1.5s1.1,0.5,1.7,0.8c0.4,0.2,0.6,0.5,0.7,0.7c0,0.2-0.1,0.3-0.1,0.4
	c-0.1,0.1-0.3,0.1-0.5,0.1c-0.1,0-0.2,0-0.4-0.1c-0.4-0.1-0.5-0.3-0.7-0.6c-0.1-0.2-1.1-0.6-1.2-0.6c-0.4-0.1-1.1-1-1.1-1
	s-0.3-0.1-0.9-0.5c-0.2-0.1-0.5-0.2-0.6-0.3c-0.3-0.2-0.7-0.5-1-0.6c-0.1,0-0.7-0.6-0.8-0.7c-0.3-0.3-0.4-0.3-0.7-0.4
	c-0.1-0.1-0.3-0.2-0.4-0.2c-0.1-0.1-0.1-0.3-0.2-0.3l-0.1,0.1l0,0l-0.1,0.1c-0.2,0.4-0.1,1,0,1.3c0.1,0.6,0.4,1.2,0.7,1.6
	c0.4,0.5,0.7,1,1.2,1.4c0.5,0.4,0.9,0.7,1.4,1c1.2,0.8,2.1,1.3,3.5,1.4c0.8,0.1,1.4,0.1,2-0.3c0.5-0.3,1.1-1,1.3-1.6
	C-234.6,435.8-235.3,434.4-236,433.7"/>
</svg>
